<?xml version="1.0" encoding="utf-8"?>
<!-- Generator: Adobe Illustrator 24.3.0, SVG Export Plug-In . SVG Version: 6.00 Build 0)  -->
<svg version="1.1" id="Layer_1" xmlns="http://www.w3.org/2000/svg" xmlns:xlink="http://www.w3.org/1999/xlink" x="0px" y="0px"
	 viewBox="0 0 50 48" style="enable-background:new 0 0 50 48;" xml:space="preserve">
<style type="text/css">
	.st0{fill:#005EB8;}
</style>
<g>
	<g>
		<g>
			<g>
				<g>
					<rect x="31.03" y="7.3" class="st0" width="2.55" height="7.65"/>
				</g>
			</g>
			<g>
				<g>
					<rect x="35.28" y="7.3" class="st0" width="2.55" height="7.65"/>
				</g>
			</g>
			<g>
				<g>
					<rect x="26.36" y="7.3" class="st0" width="2.55" height="7.65"/>
				</g>
			</g>
			<g>
				<g>
					<rect x="21.68" y="7.3" class="st0" width="2.55" height="7.65"/>
				</g>
			</g>
			<g>
				<g>
					<rect x="17.01" y="7.3" class="st0" width="2.55" height="7.65"/>
				</g>
			</g>
		</g>
		<g>
			<path class="st0" d="M38.15,47.01H12.3c-3.13,0-5.67-2.54-5.67-5.67v-9h2.13v-8.15H6.63l0.12-9.27l0.15-0.28
				c0.3-0.58,2.92-5.61,3.93-8.1C12.09,3.4,14.7,1.6,17.98,1.6h20.17c3.02,0,5.39,2.61,5.39,5.94v33.8
				C43.53,44.57,41.22,47.01,38.15,47.01z M8.69,34.4v6.94c0,1.99,1.62,3.61,3.61,3.61h25.85c1.93,0,3.32-1.52,3.32-3.61V7.53
				c0-2.17-1.46-3.88-3.32-3.88H17.98c-2.44,0-4.3,1.3-5.25,3.65c-1.02,2.53-3.52,7.33-4.01,8.27l-0.04,0.07v6.48h2.13V34.4H8.69z"
				/>
		</g>
		<g>
			<polygon class="st0" points="36.34,45.1 13.91,45.1 15.16,40.43 35.1,40.43 			"/>
		</g>
	</g>
</g>
<g>
	<g>
		<path class="st0" d="M22.6,31.83h-1.82v-7.82c-0.67,0.71-1.45,1.23-2.35,1.57V23.7c0.47-0.18,0.99-0.51,1.55-1
			c0.56-0.49,0.94-1.07,1.15-1.73h1.48V31.83z"/>
	</g>
	<g>
		<path class="st0" d="M28.4,20.96c0.92,0,1.64,0.37,2.16,1.12c0.62,0.89,0.93,2.35,0.93,4.41c0,2.05-0.31,3.52-0.94,4.41
			c-0.51,0.74-1.23,1.11-2.15,1.11s-1.67-0.41-2.24-1.21c-0.57-0.81-0.85-2.25-0.85-4.33c0-2.04,0.31-3.5,0.93-4.4
			C26.76,21.33,27.48,20.96,28.4,20.96z M28.4,22.68c-0.22,0-0.42,0.08-0.59,0.24c-0.17,0.16-0.31,0.45-0.4,0.86
			c-0.12,0.53-0.19,1.44-0.19,2.71s0.06,2.14,0.17,2.62c0.11,0.47,0.26,0.79,0.43,0.95c0.17,0.16,0.37,0.24,0.59,0.24
			c0.22,0,0.42-0.08,0.59-0.24c0.17-0.16,0.31-0.45,0.4-0.86c0.13-0.53,0.19-1.43,0.19-2.7s-0.06-2.14-0.17-2.62
			c-0.11-0.48-0.25-0.8-0.43-0.95C28.82,22.77,28.62,22.68,28.4,22.68z"/>
	</g>
</g>
</svg>
